<?xml version="1.0" encoding="utf-8"?>
<!-- Generator: Adobe Illustrator 16.0.0, SVG Export Plug-In . SVG Version: 6.00 Build 0)  -->
<!DOCTYPE svg PUBLIC "-//W3C//DTD SVG 1.1//EN" "http://www.w3.org/Graphics/SVG/1.1/DTD/svg11.dtd">
<svg version="1.1" id="Layer_1" xmlns="http://www.w3.org/2000/svg" xmlns:xlink="http://www.w3.org/1999/xlink" x="0px" y="0px"
	 width="200px" height="160.173px" viewBox="0 0 200 160.173" enable-background="new 0 0 200 160.173" xml:space="preserve">
<polygon fill="#E6E7E8" points="198.227,158.079 16.471,106.959 16.471,2.722 198.227,55.841 "/>
<polygon fill="#D1D3D4" points="171.887,139.027 37.811,102.289 37.811,21.333 171.887,60.611 "/>
<polygon fill="#231F20" points="2.926,93.299 46.156,69.072 45.682,40.795 2.926,57.286 "/>
<polygon fill="#231F20" points="167.887,134.027 40.811,98.289 40.811,26.333 167.887,63.611 "/>
<polygon fill="#E46425" points="132.943,58.13 122.426,63.18 121.112,62.81 53.791,43.876 53.791,102.7 158.369,132.114 
	158.369,74.288 158.369,73.288 158.369,65.63 "/>
<polygon fill="#F58235" points="126.943,60.13 116.426,65.18 115.112,64.81 47.791,45.876 47.791,104.7 152.369,134.114 
	152.369,76.288 152.369,75.288 152.369,67.63 "/>
<polygon fill="#008BCE" points="121.361,62.13 110.844,67.18 109.53,66.81 42.209,47.876 42.209,106.7 146.787,136.114 
	146.787,78.288 146.787,77.288 146.787,69.63 "/>
<polygon fill="#39BCED" points="115.361,64.13 104.844,69.18 103.53,68.81 36.209,49.876 36.209,108.7 140.787,138.114 
	140.787,80.288 140.787,79.288 140.787,71.63 "/>
<polygon fill="#3B4D81" points="109.693,65.636 99.176,70.686 97.862,70.315 30.541,51.382 30.541,110.206 135.119,139.62 
	135.119,81.794 135.119,80.794 135.119,73.136 "/>
<polygon fill="#39BCED" points="103.693,67.636 93.176,72.686 91.862,72.315 24.541,53.382 24.541,112.206 129.119,141.62 
	129.119,83.794 129.119,82.794 129.119,75.136 "/>
<polygon fill="#008BCE" points="98.111,69.636 87.594,74.686 86.28,74.315 18.959,55.382 18.959,114.206 123.537,143.62 
	123.537,85.794 123.537,84.794 123.537,77.136 "/>
<polygon fill="#D7E1F2" points="92.111,72.047 81.594,77.097 80.28,76.727 12.959,57.793 12.959,116.617 117.537,146.031 
	117.537,88.205 117.537,87.205 117.537,79.547 "/>
<polygon fill="#231F20" points="2.453,123.627 9.121,119.961 9.121,54.961 2.453,57.627 "/>
<polygon fill="#54B948" points="119.786,157.127 2.453,124.127 2.453,58.127 119.786,91.127 "/>
<polygon fill="#231F20" points="71.868,121.759 38.37,112.338 38.37,93.495 71.868,102.917 "/>
<polygon fill="#D7E1F2" points="69.703,119.212 40.156,110.878 40.156,95.934 69.703,104.269 "/>
<polygon fill="#231F20" points="119.785,157.127 126.453,153.461 126.453,88.461 119.785,91.127 "/>
<polygon fill="#231F20" points="119.785,157.127 163.015,132.9 163.015,117.294 119.785,141.114 "/>
<polygon fill="#231F20" points="119.785,101.912 163.015,82.686 163.015,73.079 119.785,90.899 "/>
<g>
	<path d="M50.819,108.026l-0.175,0.606l-4.36-3.763l0.152-0.53l5.692-0.853l-0.175,0.605l-4.798,0.754L50.819,108.026z"/>
	<path d="M49.405,111.376l8.451-8.35l0.586,0.169l-8.452,8.35L49.405,111.376z"/>
	<path d="M56.319,109.613l4.794-0.741l-3.659-3.193l0.175-0.605l4.363,3.754l-0.153,0.529l-5.694,0.863L56.319,109.613z"/>
</g>
</svg>
