<?xml version="1.0" encoding="utf-8"?>
<!-- Generator: Adobe Illustrator 16.0.0, SVG Export Plug-In . SVG Version: 6.00 Build 0)  -->
<!DOCTYPE svg PUBLIC "-//W3C//DTD SVG 1.1//EN" "http://www.w3.org/Graphics/SVG/1.1/DTD/svg11.dtd">
<svg version="1.1" id="Layer_2" xmlns="http://www.w3.org/2000/svg" xmlns:xlink="http://www.w3.org/1999/xlink" x="0px" y="0px"
	 width="32px" height="32px" viewBox="0 0 32 32" enable-background="new 0 0 32 32" xml:space="preserve">
<rect x="11" y="31" width="9" height="1"/>
<rect x="9" y="30" width="2" height="1"/>
<rect x="7" y="29" width="2" height="1"/>
<rect x="5.958" y="27.959" width="1.042" height="1.041"/>
<rect x="4.958" y="27" width="1" height="0.959"/>
<rect x="4" y="25" width="1" height="2"/>
<rect x="3" y="23" width="1" height="3"/>
<rect x="2" y="15" width="1" height="9"/>
<rect x="1" y="14" width="1" height="8"/>
<rect x="2" y="12" width="1" height="8"/>
<rect x="3" y="10" width="1" height="8"/>
<rect x="3" y="13" width="1" height="2"/>
<rect x="4" y="11" width="1" height="2"/>
<rect x="5" y="10" width="0.958" height="1"/>
<rect x="5.958" y="9" width="1.042" height="1"/>
<rect x="5" y="7" width="2" height="1"/>
<rect x="7" y="6" width="2" height="1"/>
<rect x="4" y="6" width="2" height="1"/>
<rect x="4" y="5" width="2" height="1"/>
<rect x="9" y="5" width="2" height="1"/>
<rect x="11" y="4" width="2" height="1"/>
<rect x="12" y="4" width="2" height="1"/>
<rect x="4" y="9" width="1" height="1"/>
<rect x="4.958" y="8" width="1" height="1"/>
<rect x="4" y="6" width="0.958" height="2"/>
<rect x="3" y="8" width="1" height="1"/>
<rect x="2" y="8" width="1" height="1"/>
<rect x="1" y="7" width="1" height="1"/>
<rect x="1" y="6" width="1" height="1"/>
<rect x="2" y="5" width="1" height="1"/>
<rect x="3" y="4" width="1" height="1"/>
<rect x="4" y="4" width="1" height="1"/>
<rect x="20" y="7" width="2" height="1"/>
<rect x="21" y="6" width="3" height="1"/>
<rect x="23.042" y="7" width="1.958" height="1"/>
<rect x="24.021" y="8" width="1.979" height="1"/>
<rect x="25.011" y="11" width="1.989" height="1"/>
<rect x="26.006" y="12" width="0.994" height="2"/>
<rect x="27" y="10" width="1" height="7"/>
<rect x="28" y="12" width="1" height="12"/>
<rect x="29" y="14" width="1" height="8"/>
<rect x="27" y="21" width="1" height="5"/>
<rect x="26" y="24" width="1" height="3"/>
<rect x="25.011" y="26" width="0.989" height="1.959"/>
<rect x="24.011" y="27" width="0.989" height="1.959"/>
<rect x="23.042" y="28" width="0.958" height="2"/>
<rect x="22" y="29" width="1.042" height="1"/>
<rect x="20" y="30" width="2" height="1"/>
<rect x="26" y="9" width="1" height="1"/>
<rect x="27" y="8" width="2" height="1"/>
<rect x="28" y="7" width="1" height="1"/>
<rect x="14" y="4" width="2" height="1"/>
<rect x="13" y="3" width="2" height="1"/>
<rect x="16" y="4" width="2" height="1"/>
<rect x="18" y="4" width="2" height="1"/>
<rect x="20" y="5" width="2" height="1"/>
<rect x="17" y="2" width="1" height="2"/>
<rect x="11" y="6" fill="#F7F7F7" width="9" height="23"/>
<rect x="20" y="7" fill="#F7F7F7" width="4" height="22"/>
<rect x="24" y="8" fill="#F7F7F7" width="1" height="20"/>
<rect x="25" y="11" fill="#F7F7F7" width="1" height="14"/>
<rect x="26" y="13" fill="#F7F7F7" width="1" height="10"/>
<rect x="27" y="16" fill="#F7F7F7" width="1" height="4"/>
<rect x="7" y="7" fill="#F7F7F7" width="4" height="21"/>
<rect x="6" y="9" fill="#F7F7F7" width="1" height="18"/>
<rect x="4" y="10" fill="#F7F7F7" width="2" height="14"/>
<rect x="11" y="30" fill="#808080" width="9" height="1"/>
<rect x="9" y="29" fill="#808080" width="2" height="1"/>
<rect x="7" y="28" fill="#808080" width="2" height="1"/>
<rect x="5.958" y="26.959" fill="#808080" width="1.042" height="1.041"/>
<rect x="4.958" y="26" fill="#808080" width="1" height="0.959"/>
<rect x="4" y="24" fill="#808080" width="1" height="2"/>
<rect x="3" y="22" fill="#808080" width="1" height="2"/>
<rect x="2" y="14" fill="#808080" width="1" height="8"/>
<rect x="3" y="12" fill="#808080" width="1" height="2"/>
<rect x="4" y="10" fill="#808080" width="1" height="2"/>
<rect x="5" y="9" fill="#808080" width="0.958" height="1"/>
<rect x="5.958" y="8" fill="#808080" width="1.042" height="1"/>
<rect x="7" y="7" fill="#808080" width="2" height="1"/>
<rect x="9" y="6" fill="#808080" width="2" height="1"/>
<rect x="4" y="8" fill="#808080" width="1" height="1"/>
<rect x="4.958" y="7" fill="#808080" width="1" height="1"/>
<rect x="4" y="5" fill="#808080" width="0.958" height="2"/>
<rect x="3" y="7" fill="#808080" width="1" height="1"/>
<rect x="20" y="6" fill="#808080" width="2" height="1"/>
<rect x="21" y="7" fill="#808080" width="3" height="1"/>
<rect x="23.042" y="8" fill="#808080" width="1.958" height="1"/>
<rect x="24.021" y="9" fill="#808080" width="1.979" height="1"/>
<rect x="25.011" y="10" fill="#808080" width="1.989" height="1"/>
<rect x="26.006" y="11" fill="#808080" width="0.994" height="2"/>
<rect x="27" y="12" fill="#808080" width="1" height="4"/>
<rect x="28" y="14" fill="#808080" width="1" height="8"/>
<rect x="27" y="20" fill="#808080" width="1" height="4"/>
<rect x="26" y="23" fill="#808080" width="1" height="3"/>
<rect x="25.011" y="25" fill="#808080" width="0.989" height="1.959"/>
<rect x="24.011" y="26" fill="#808080" width="0.989" height="1.959"/>
<rect x="23.042" y="27" fill="#808080" width="0.958" height="2"/>
<rect x="22" y="28" fill="#808080" width="1.042" height="1"/>
<rect x="20" y="29" fill="#808080" width="2" height="1"/>
<rect x="26" y="8" fill="#808080" width="1" height="1"/>
<rect x="27" y="7" fill="#808080" width="2" height="1"/>
<rect x="28" y="6" fill="#808080" width="1" height="1"/>
<rect x="15" y="3" fill="#808080" width="2" height="1"/>
<rect x="17" y="1" fill="#808080" width="1" height="2"/>
<rect x="11" y="29" fill="#C0C0C0" width="9" height="1"/>
<rect x="9" y="28" fill="#C0C0C0" width="2" height="1"/>
<rect x="7" y="26.959" fill="#C0C0C0" width="2" height="1.041"/>
<rect x="5.958" y="26" fill="#C0C0C0" width="1.042" height="0.959"/>
<rect x="5" y="24" fill="#C0C0C0" width="0.958" height="2"/>
<rect x="4" y="22" fill="#C0C0C0" width="1" height="2"/>
<rect x="3" y="14" fill="#C0C0C0" width="1" height="8"/>
<rect x="4" y="12" fill="#C0C0C0" width="1" height="2"/>
<rect x="5" y="10" fill="#C0C0C0" width="0.958" height="2"/>
<rect x="5.958" y="9" fill="#C0C0C0" width="1.042" height="1"/>
<rect x="7" y="8" fill="#C0C0C0" width="1" height="1"/>
<rect x="9" y="7" fill="#C0C0C0" width="1" height="1"/>
<rect x="3" y="6" fill="#C0C0C0" width="1" height="1"/>
<rect x="2" y="7" fill="#C0C0C0" width="1" height="1"/>
<rect x="11" y="5" fill="#C0C0C0" width="9" height="1"/>
<rect x="14" y="3" fill="#C0C0C0" width="1" height="1"/>
<rect x="15" y="1" fill="#C0C0C0" width="1" height="2"/>
<rect x="25.011" y="7" fill="#C0C0C0" width="0.989" height="1"/>
<rect x="26.006" y="6" fill="#C0C0C0" width="1.994" height="1"/>
<rect x="27.003" y="5" fill="#C0C0C0" width="0.997" height="1"/>
<rect x="2" y="6" fill="#D9D9D9" width="1" height="1"/>
<rect x="3" y="5" fill="#D9D9D9" width="1" height="1"/>
<rect x="26" y="5" fill="#D9D9D9" width="1" height="1"/>
<rect x="13" y="2" fill="#D9D9D9" width="1" height="1"/>
<rect x="13" y="1" fill="#D9D9D9" width="1" height="1"/>
<rect x="14" y="16" width="3" height="3"/>
<rect x="15" y="11" width="1" height="5"/>
<rect x="13" y="15" width="1" height="1"/>
<rect x="26" y="7" width="1" height="1"/>
<rect x="25" y="6" width="1" height="1"/>
<rect x="25" y="5" width="1" height="1"/>
<rect x="26" y="4" width="1" height="1"/>
<rect x="16" y="2" width="1" height="1"/>
<rect x="16" y="1" width="1" height="1"/>
<rect x="17" width="1" height="1"/>
<rect x="18" y="1" width="1" height="1"/>
<rect x="18" y="2" width="1" height="1"/>
<rect x="16" width="1" height="1"/>
<rect x="15" width="1" height="1"/>
<rect x="14" width="1" height="1"/>
<rect x="14" y="1" width="1" height="1"/>
<rect x="14" y="2" width="1" height="1"/>
<rect x="12" y="2" width="1" height="1"/>
<rect x="12" y="1" width="1" height="1"/>
<rect x="13" width="1" height="1"/>
<rect x="27" y="4" width="1" height="1"/>
<rect x="28" y="5" width="1" height="1"/>
<rect x="29" y="6" width="1" height="1"/>
<rect x="29" y="7" width="1" height="1"/>
<rect x="12" y="14" width="1" height="1"/>
<rect x="11" y="13" width="1" height="1"/>
<rect x="10" y="12" width="1" height="1"/>
<rect x="9" y="11" width="1" height="1"/>
<rect x="8" y="10" width="1" height="1"/>
<rect x="13" y="19" fill="#FF0000" width="1" height="1"/>
<rect x="12" y="20" fill="#FF0000" width="1" height="1"/>
<rect x="11" y="21" fill="#FF0000" width="1" height="1"/>
<rect x="10" y="22" fill="#FF0000" width="1" height="1"/>
<rect x="9" y="23" fill="#FF0000" width="1" height="1"/>
<rect x="8" y="24" fill="#FF0000" width="1" height="1"/>
<rect x="7" y="25" fill="#FF0000" width="1" height="1"/>
<rect x="6" y="22" fill="#FF0000" width="1" height="1"/>
<rect x="4" y="17" fill="#FF0000" width="1" height="1"/>
<rect x="6" y="11" fill="#FF0000" width="1" height="1"/>
<rect x="10" y="8" fill="#FF0000" width="1" height="1"/>
<rect x="15" y="6" fill="#FF0000" width="1" height="1"/>
<rect x="20" y="8" fill="#FF0000" width="1" height="1"/>
<rect x="24" y="12" fill="#FF0000" width="1" height="1"/>
<rect x="26" y="17" fill="#FF0000" width="1" height="1"/>
<rect x="24" y="22" fill="#FF0000" width="1" height="1"/>
<rect x="21" y="26" fill="#FF0000" width="1" height="1"/>
<rect x="15" y="28" fill="#FF0000" width="1" height="1"/>
<rect x="9" y="26" fill="#FF0000" width="1" height="1"/>
</svg>
