<?xml version="1.0" encoding="utf-8"?>
<!-- Generator: Adobe Illustrator 16.0.0, SVG Export Plug-In . SVG Version: 6.00 Build 0)  -->
<!DOCTYPE svg PUBLIC "-//W3C//DTD SVG 1.1//EN" "http://www.w3.org/Graphics/SVG/1.1/DTD/svg11.dtd">
<svg version="1.1" id="Layer_1" xmlns="http://www.w3.org/2000/svg" xmlns:xlink="http://www.w3.org/1999/xlink" x="0px" y="0px"
	 width="400px" height="400px" viewBox="0 0 400 400" enable-background="new 0 0 400 400" xml:space="preserve">
<path fill="#29ABE2" d="M348,38.996C348,18.744,332.584,2,312.334,2H88.664C68.414,2,53,18.744,53,38.996v319.006
	C53,378.252,68.414,395,88.664,395h223.67c20.25,0,35.666-16.748,35.666-36.998V38.996z M323,336.867
	C323,354.09,311.219,369,294,369H108.689C91.471,369,78,354.09,78,336.867V59.268C78,42.048,91.471,28,108.689,28H294
	c17.219,0,29,14.048,29,31.268V336.867z"/>
</svg>
